 <svg xmlns="http://www.w3.org/2000/svg" width="1192" height="629" viewBox="0 0 1192 629" fill="none">
                    <g filter="url(#filter0_di_585_1390)">
                        <path d="M927.845 218.216C925.565 215.732 920.941 217.55 917.763 218.639C912.231 220.531 913.74 221.462 907.986 219.495C906.392 218.956 896.214 216.081 897.027 215.256C898.442 213.818 899.561 213.258 902.232 211.894C896.753 209.547 901.198 205.868 901.377 202.401C901.546 199.123 899.54 196.005 897.946 192.896C903.404 193.753 907.416 193.214 913.033 192.706C912.104 196.068 910.341 197.167 914.891 199.25C918.122 200.73 923.063 201.195 926.927 201.978C924.921 202.739 922.767 202.908 923.654 204.304C924.752 206.037 925.312 206.841 927.539 208.131C931.034 210.15 930.559 212.719 931.171 215.531C930.063 216.43 928.943 217.328 927.835 218.227L927.845 218.216ZM1017.13 187.23C1016.97 186.067 1015.45 182.642 1016.93 181.87C1019.95 180.284 1021.98 179.893 1025.29 181.394C1028.99 183.075 1029.2 183.699 1033.54 182.916C1037.93 182.113 1041.09 182.155 1043.07 179.755C1044.67 177.831 1038.06 177.863 1036.62 177.948C1031.99 178.212 1029.83 178.37 1025.57 177.408C1024.69 177.208 1021.22 176.806 1021.59 176.172C1022.22 175.093 1023.19 174.713 1021.25 174.3C1020.11 174.057 1017.23 173.063 1016.03 173.201C1014.77 173.338 1013.66 175.326 1012.33 174.829C1007.49 173.032 997.685 173.296 992.733 175.336C989.619 176.626 985.543 176.637 981.806 177.028C979.409 177.271 979.441 181.066 979.008 182.356C978.691 183.308 976.295 185.686 974.004 184.396C971.301 182.874 969.073 180.231 965.705 181.68C962.285 183.149 961.43 184.862 960.817 187.135C960.142 189.661 968.778 186.617 969.401 186.373C968.957 188.53 968.155 188.868 971.428 189.947C973.307 190.56 979.452 191.797 976.707 189.186C974.986 187.547 973.128 185.496 977.625 187.251C980.539 188.382 981.922 188.065 985.512 187.875C989.249 187.674 992.976 187.484 996.714 187.283C998.91 187.166 1002.03 189.682 1003.61 190.518C1004.63 191.067 1010.98 191.152 1011.9 190.56C1013.61 189.46 1015.36 188.382 1017.11 187.251L1017.13 187.23ZM731.841 277.451C726.457 277.504 726.351 279.005 723.089 281.363C724.303 281.405 729.318 281.944 729.603 281.289C730.173 279.956 730.574 278.646 731.841 277.461V277.451ZM642.913 366.245C644.529 367.556 647.443 367.122 646.851 365.536C646.186 363.75 642.998 364.606 642.913 366.245ZM641.425 363.221C645.363 357.745 649.058 366.89 641.425 363.221V363.221ZM371.379 298.87C370.872 296.206 370.376 293.531 369.869 290.867C369.88 290.941 378.125 287.167 379.086 286.617C382.211 284.809 380.818 281.955 380.786 279.481C380.765 278.106 385.769 274.713 384.481 273.656C380.596 270.442 380.511 270.59 373.691 270.833C371.664 270.907 370.059 271.552 368.254 272.07C366.892 272.461 363.619 271.129 362.278 270.78C361.275 270.516 363.049 268.042 363.334 267.429C363.651 266.752 367.272 266.498 368.317 266.308C375.137 265.103 374.726 265.346 374.388 261.244C372.35 261.572 370.302 261.9 368.264 262.238C367.209 258.178 366.29 245.09 354.592 251.063C351.741 247.765 354.655 247.12 355.036 243.769C355.426 240.28 355.817 236.791 356.207 233.302C348.891 233.133 348.796 233.197 344.119 236.411C339.326 239.709 338.302 240.28 338.302 244.54C337.372 243.124 336.443 241.707 335.525 240.28C329.729 242.289 329.011 241.95 330.827 245.714C324.207 246.031 323.056 247.881 318.907 250.884C317.756 247.997 318.918 247.945 322.433 245.767C325.791 243.695 329.148 241.612 332.505 239.54C330.478 239.371 323.552 238.102 321.979 238.726C318.242 240.206 314.504 241.686 310.767 243.166C306.565 244.826 293.336 249.488 300.547 252.184C297.348 253.104 293.347 255.377 291.436 252.554C288.068 255.546 286.474 255.969 288.902 259.235L294.709 257.618C293.811 260.726 294.835 261.276 289.314 261.075C285.217 260.927 282.504 262.248 278.925 263.39C281.849 265.875 282.799 265.779 279.094 267.926C276.57 269.385 273.815 266.583 271.239 267.682C266.91 269.533 255.191 273.708 262.328 277.271C258.158 279.121 251.58 281.669 256.87 284.428C262.222 287.219 254.642 289.651 249.743 290.201C251.39 294.165 251.063 293.985 258.052 294.144C258.559 294.155 266.213 288.329 264.165 291.649C263.31 293.023 263.384 293.933 261.008 294.419C257.218 295.191 256.057 294.81 256.965 297.094C257.683 298.901 259.382 297.39 261.768 298.024C262.476 298.214 262.233 299.61 262.94 299.789C264.049 300.075 265.928 300.022 267.111 300.107C273.181 300.572 272.696 298.267 276.285 295.751C279.664 293.393 284.447 294.408 289.588 294.525C293.558 294.62 299.175 296.998 302.806 297.961C305.361 298.637 306.449 302.908 307.367 304.431C309.384 302.792 313.449 298.373 317.218 301.587C315.296 302.802 313.364 304.029 311.443 305.245C316.268 305.245 318.854 305.467 322.856 303.934C323.679 307.243 324.492 310.562 325.315 313.871C326.086 317.001 333.498 319.2 337.626 320.437C339.157 320.891 338.713 322.699 340.202 323.132C343.137 323.999 346.083 324.877 349.018 325.744C354.244 327.287 358.931 326.188 361.286 323.608C365.973 326.008 368.581 326.547 372.804 323.703C374.398 322.625 366.712 318.068 366.448 316.557C366.047 314.336 363.418 309.495 364.918 307.486C367.071 304.61 369.236 301.735 371.389 298.859L371.379 298.87ZM320.987 308.871C318.464 306.376 314.737 304.166 312.245 307.782C310.514 310.287 319.044 310.89 320.987 308.871ZM370.313 270.188C372.952 269.681 375.581 269.173 378.22 268.666C374.578 266.234 374.863 265.367 369.954 266.911C367.156 267.788 365.097 270.727 370.313 270.188ZM1077.62 209.325C1072.23 207.729 1066.85 206.132 1061.45 204.536C1059.66 204.007 1056.44 205.519 1054.54 205.181C1052.87 204.885 1050.35 202.559 1049.2 201.84C1046.44 200.117 1043.7 198.394 1040.94 196.671C1038.78 195.317 1037.73 195.814 1034.43 196.1C1029.52 196.512 1024.9 190.222 1021.18 192.378C1015.27 195.783 1038.41 206.122 1033.06 209.79C1031.09 211.144 1019.67 211.535 1016.99 210.615C1013.83 209.537 1011.08 203.088 1009.49 201.047C1002.65 203.711 998.878 205.086 994.877 209.188C992.48 211.63 991.424 211.831 993.493 214.305C995.89 217.148 997.115 217.466 994.232 220.13C992.343 219.157 990.442 218.195 988.552 217.222C986.261 222.667 983.97 228.101 981.679 233.546C981.405 234.19 984.065 235.036 984.836 235.417C986.599 236.284 986.441 237.457 986.842 238.768C987.212 239.952 981.056 242.341 979.927 243.906C977.699 246.993 975.471 250.08 973.244 253.178C971.903 255.038 976.084 258.231 977.435 259.944C981.669 265.304 988.098 268.56 995.257 272.82C996.502 273.56 1002.97 276.447 1002.68 277.525C1001.73 281.003 1002.01 282.779 1008.7 282.103C1017.21 281.236 1021.02 274.649 1027.11 271.129C1030.31 269.279 1026.62 267.894 1028.8 266.023C1031.9 263.348 1035.02 260.663 1038.12 257.988C1039.89 256.466 1046.54 255.303 1049.38 254.425C1049.3 254.446 1056.92 259.531 1058.51 258.221C1060.41 256.645 1062.32 255.081 1064.22 253.505C1066.5 254.33 1064.33 257.618 1063.96 259.024C1068.32 258.76 1068.37 258.781 1070.21 256.487C1072.07 257.776 1077.23 262.819 1080.08 262.608C1083.66 262.333 1087.23 262.069 1090.8 261.794C1093.21 261.614 1092.67 258.844 1094.78 258.855C1100.64 258.855 1103.98 254.15 1107.32 251.571C1109.27 250.059 1104.73 243.684 1104.01 241.929C1102.46 238.144 1100.5 236.326 1103.92 233.017C1105.63 231.368 1099.93 224.411 1098.97 222.551C1097.3 219.316 1094 217.127 1090.53 214.368C1086.46 211.144 1084.05 211.524 1077.06 211.027C1077.24 210.509 1077.22 209.822 1077.63 209.367L1077.62 209.325ZM1103.18 270.695C1104.21 271.213 1107.41 273.455 1108.67 273.455C1109.7 273.455 1112.91 270.643 1113.68 270.135C1115.21 269.12 1111.22 262.692 1110.68 261.212C1106.42 262.682 1102.15 264.162 1097.89 265.631C1099.65 267.323 1101.41 269.004 1103.17 270.695H1103.18ZM1165.69 212.243C1164.54 212.751 1163.39 213.247 1162.25 213.755C1166.36 215.742 1178.45 219.781 1177.46 223.618C1176.51 227.298 1175.95 227.477 1180.81 229.888C1184.07 231.505 1185.19 233.028 1189.81 233.038C1190.36 228.746 1194.77 220.225 1189.32 217.074C1187.33 215.933 1186.93 216.958 1185.11 218.015C1184.34 218.459 1181.47 217.18 1180.65 216.926C1175.67 215.372 1170.68 213.808 1165.69 212.254V212.243ZM1175.02 245.809C1174.06 247.205 1166.44 256.74 1167.74 257.195C1172.2 258.749 1173.05 258.168 1178.06 257.153C1183.72 256.011 1183.1 256.085 1183.32 252.617C1183.44 250.81 1182.56 248.04 1184.53 246.56C1185.22 246.031 1187.91 244.604 1187.97 243.959C1188.04 243.081 1184.88 242.215 1184.92 241.284C1185 238.81 1185.08 236.347 1185.17 233.873C1185.21 232.668 1178.17 232.108 1176.24 231.769C1175.83 236.453 1175.42 241.136 1175.01 245.82L1175.02 245.809ZM1104.37 187.156C1110.14 187.706 1113.78 188.372 1119.17 187.124C1116.83 185.327 1116.87 184.925 1113.08 184.978C1109.39 185.02 1105.69 185.073 1102 185.115C1102.79 185.792 1103.58 186.469 1104.36 187.156H1104.37ZM909.084 232.129C909.317 232.404 903.795 235.184 902.855 235.311C901.25 235.533 897.608 234.55 896.046 234.328C891.421 233.662 886.786 232.985 882.162 232.319C878.224 231.748 874.286 231.177 870.359 230.607C868.469 230.332 868.416 231.6 866.167 231.262C859.072 230.205 852.347 230.12 847.776 226.769C855.472 226.441 863.169 226.124 870.865 225.796C865.111 225.743 862.05 221.726 856.011 221.272C853.931 221.113 851.344 222.001 849.359 221.451C845.316 220.32 846.794 219.992 844.703 218.047C842.993 216.451 839.667 216.535 836.574 216.123C835.624 215.996 835.698 214.463 835.55 213.966C835.339 213.226 833.322 213.216 832.182 213.025C831.063 212.835 830.229 213.882 829.479 213.755C828.381 213.575 826.755 212.349 825.932 211.926C823.472 210.657 821.455 210.34 818.277 209.759C819.819 213.311 817.813 215.668 811.668 213.004C807.002 210.974 800.656 211.767 795.198 211.862C793.298 211.894 793.804 211.905 791.946 211.038C788.114 209.251 790.162 211.344 788.99 212.56C786.551 215.076 778.158 214.558 783.5 217.645C786.731 219.517 785.105 225.088 785.263 227.594C785.401 229.845 784.039 233.979 786.974 235.66C790.922 237.922 795.261 239.942 798.006 242.743C802.124 246.951 803.074 247.342 800.382 251.877C785.517 248.875 770.651 245.862 755.786 242.859C753.263 242.352 751.383 241.242 750.739 239.772C750.095 238.314 744.626 236.537 745.946 238.155C747.73 240.322 748.111 242.035 744.151 243.198C740.731 244.202 739.02 243.515 735.315 242.849C735.927 241.718 736.93 240.819 736.001 239.91C734.766 240.692 733.182 241.527 732.791 242.341C727.935 242.563 722.149 242.003 718.612 244.044C715.529 245.83 712.932 248.473 710.25 249.943C708.561 250.862 699.936 255.387 698.067 254.964C690.508 253.252 694.488 255.874 690.687 258.073C686.77 260.335 680.932 260.515 675.621 261.297C671.556 261.9 670.754 258.369 666.119 260.684C663.068 262.206 667.302 264.395 670.026 264.659C674.924 265.124 679.834 265.589 684.732 266.054C683.761 265.325 679.348 262.238 683.529 261.847C686.886 261.53 687.931 263.274 689.99 264.733C693.622 262.428 694.477 262.333 693.411 259.309C692.672 257.216 693.802 256.561 695.639 254.679C697.856 256.603 699.376 257.924 703.631 257.174C707.083 256.561 712.658 254.584 715.413 256.17C720.365 259.035 720.206 266.847 721.547 270.78C721.822 271.594 719.246 272.609 718.359 273.159C716.004 274.618 719.404 274.015 719.594 275.495C719.763 276.848 716.68 279.502 715.783 280.728C714.294 282.769 708.709 294.112 704.423 293.679C711.908 298.119 715.857 293.108 719.024 289.366C721.948 285.908 723.532 281.024 730.173 285.221C735.441 288.541 737.289 293.51 737.542 297.813C737.922 304.219 738.302 310.615 738.682 317.022C738.872 320.172 739.538 325.363 744.426 328.027C750.518 331.347 758.003 331.59 764.179 334.624C768.149 336.58 772.077 337.447 771.982 340.492C771.929 341.982 771.876 343.473 771.834 344.963C771.813 345.503 770.197 346.19 770.049 347.046C769.754 348.833 767.178 354.098 769.427 355.398C772.647 357.259 776.015 358.982 778.58 361.16C780.449 362.745 781.399 363.031 780.628 364.828C780.248 365.706 778.432 368 778.897 368.867C779.573 370.135 785.601 371.319 785.591 372.873C785.58 376.235 785.569 379.597 785.548 382.97C785.548 384.471 786.815 388.414 785.263 389.693C782.201 392.22 781.325 393.795 777.408 396.037C776.12 396.777 773.333 397.834 772.583 398.796C771.834 399.758 773.132 401.629 772.077 402.464C768.761 405.086 762.923 403.585 759.154 402.75C758.151 402.528 758.457 400.202 758.373 399.578C758.299 399.039 753.674 399.409 752.745 399.42C749.124 399.483 745.249 397.686 742.019 396.851C737.447 395.656 732.791 394.567 728.178 393.425C725.316 392.717 722.772 389.027 720.808 388.805C716.722 388.351 711.285 388.309 707.516 387.315C703.926 386.363 701.393 384.133 699.017 382.504C694.847 379.639 694.329 379.1 694.097 375.379C693.865 371.658 680.615 368.105 675.97 367.133C669.635 365.822 662.202 365.78 654.812 365.589C649.142 365.441 650.927 355.387 641.974 356.286C645.701 357.005 646.302 359.003 642.47 359.659C639.165 360.219 640.158 357.121 641.731 356.286C637.18 355.673 638.036 358.358 635.892 359.51C633.263 360.938 630.065 360.451 626.813 360.346C620.858 360.155 617.923 363.93 616.519 366.869C614.587 370.918 613.193 371.319 607.165 373.571C602.319 375.379 602.013 378.773 601.094 381.511C598.096 380.908 592.426 382.219 589.196 382.589C585.11 383.054 582.249 383.255 578.247 383.297C571.775 383.361 566.285 382.991 560.088 381.722C558.515 381.405 554.302 380.115 553.352 379.914C552.191 379.671 553.035 379.037 551.473 379.185C550.343 379.291 549.509 379.618 548.844 379.058C547.841 378.233 547.82 377.113 547.039 376.404C544.589 374.195 540.366 372.25 537.262 370.326C535.372 369.152 532.099 369.427 530.294 369.173C530.917 367.651 529.038 365.135 528.351 363.528C527.105 360.589 525.87 357.66 524.624 354.721C523.189 351.338 528.182 347.617 525.881 344.731C524.35 342.807 520.296 339.625 520.148 337.521C519.99 335.269 523.125 334.402 521.615 332.066C519.81 329.254 520.676 329.433 524.371 327.298C526.694 325.955 530.663 324.517 531.128 322.572C531.867 319.464 533.957 318.016 537.061 315.383C538.877 313.85 541.665 310.065 544.6 309.22C546.595 308.649 548.992 308.353 549.889 307.137C550.523 306.281 551.409 303.87 552.697 303.32C557.723 301.164 557.438 305.858 560.056 305.551C565.029 304.98 562.147 309.822 568.091 308.184C571.775 307.169 575.449 305.837 579.113 304.674C580.612 304.198 583.019 305.488 584.645 305.139C587.274 304.579 589.903 304.008 592.532 303.437C593.661 303.194 595.995 301.523 595.361 300.847C594.485 299.895 591.687 301.005 590.737 300.233C587.285 297.432 592.247 295.159 595.414 293.33C596.586 292.653 599.194 294.017 600.535 293.436C602.013 292.812 603.66 292.188 605.043 291.543C608.284 290.021 612.18 288.921 615.199 287.283C618.662 285.412 614.608 283.773 620.784 282.684C629.009 281.236 618.599 275.093 616.329 273.36C615.685 272.873 614.006 270.822 613.214 271.055C612.528 271.256 612.528 273.19 611.726 273.835C608.579 276.33 606.785 275.886 602.224 277.165C607.122 279.005 599.13 282.219 596.66 283.17C595.287 283.699 594.992 283.625 593.26 283.561C591.36 283.498 593.281 282.663 592.194 282.367C590.557 281.923 588.646 281.045 588.499 283.266C585.458 283.022 586.134 282.029 584.518 281.098C583.41 280.453 580.475 281.489 580.295 279.819C580.095 277.948 579.736 277.62 581.985 276.32C583.748 275.305 586.271 274.554 583.41 273.317C582.555 275.77 580.021 277.039 577.139 278.667C575.038 279.861 577.804 279.576 577.096 280.813C576.653 281.574 573.253 282.388 573.317 282.071C572.958 284.006 580.042 283.477 582.808 283.614C583.294 283.635 586.239 287.304 587.58 288.16C583.547 290.856 574.087 289.958 579.092 286.12C576.368 286.849 571.026 288.742 569.273 286.786C567.299 288.012 564.058 286.257 562.389 285.295C559.201 283.456 558.916 285.866 556.139 284.534C556.139 286.162 549.646 286.68 547.123 287.219C544.959 287.674 543.132 286.268 540.915 286.12C541.242 286.892 539.764 288.097 538.064 287.917C537.357 287.843 535.932 286.226 535.393 285.866C529.101 289.746 545.655 289.45 549.087 289.44C553.236 289.418 556.086 288.795 560.056 287.991C563.234 287.346 565.726 288.974 562.421 290.296C566.169 291.385 567.067 294.229 565.588 296.29C561.334 294.324 559.486 292.907 554.07 292.992C550.48 293.055 548.527 294.937 544.505 294.757C538.772 294.514 533.408 293.277 529.375 295.772C527.496 296.935 531.001 300.995 524.92 301.132C517.614 301.301 523.252 305.107 524.086 306.524C525.068 308.184 521.7 312.138 523.822 313.406C530.737 317.55 529.46 322.762 521.805 326.621C518.174 328.45 515.175 328.492 512.124 330.723C510.625 331.812 509.4 331.791 508.439 330.712C507.278 329.412 506.053 329.835 504.121 329.063C502.791 328.535 503.435 326.907 501.957 325.923C500.162 324.729 498.367 323.524 496.562 322.329C494.799 321.155 489.52 319.982 490.544 317.72C491.03 316.641 498.019 314.262 499.603 313.353C503.815 310.922 506.856 310.404 505.283 307.095C501.545 299.219 488.992 307.697 483.682 303.469C484.737 302.824 489.889 300.392 489.224 299.641C487.788 298.035 487.672 297.104 491.156 296.755C493.3 296.544 493.046 289.82 492.898 288.731C492.751 287.611 491.8 286.056 491.325 284.841C490.745 283.371 491.389 282.663 492.423 280.887C493.342 279.322 493.616 279.016 495.422 277.588C496.71 276.563 490.966 275.411 489.932 275.146C487.482 274.512 484.568 273.603 484.421 271.89C484.304 270.516 482.784 267.735 485.603 267.09C486.976 266.784 492.687 268.866 492.782 269.85C492.92 271.319 493.754 273.19 496.91 273.603C501.45 274.184 500.183 272.165 502.369 270.939C504.068 269.987 508.007 270.399 509.083 269.765C510.192 269.11 509.316 266.445 510.266 265.357C511.628 263.792 512.831 262.449 514.827 261.128C514.932 261.678 515.65 262.196 515.766 262.745C522.186 260.694 510.456 257.681 509.548 256.878C506.528 254.224 513.064 250.249 515.619 252.882C516.168 252.649 516.812 252.247 517.181 251.92C514.584 250.535 514.035 249.953 510.561 250.006C508.302 250.048 506.803 249.277 507.352 247.955C508.302 245.682 508.851 245.238 511.828 243.631C513.549 242.701 515.819 241.855 515.914 240.386C513.877 240.988 511.997 240.798 511.206 239.54C508.957 241.263 507.426 242.511 506.191 244.53C504.501 247.268 505.008 247.501 500.099 247.913C494.609 248.367 487.081 246.687 486.785 242.828C486.648 241.073 487.493 238.039 486.289 236.442C485.592 235.512 486.12 234.867 483.597 234.867C482.879 234.867 480.989 235.29 480.863 235.692C480.06 238.324 478.909 239.159 482.182 241.052C483.608 241.876 483.967 244.752 483.998 245.915C484.019 246.898 482.288 246.591 482.847 247.86C483.164 248.579 483.28 249.721 483.945 250.366C486.141 252.48 488.496 252.195 492.064 251.888C496.456 251.497 496.805 253.019 497.628 255.324C498.536 257.914 496.931 257.893 500.532 259.88C504.364 261.995 505.219 261.773 502.918 264.5C501.176 266.562 504.892 267.069 501.492 269.025C501.26 269.163 487.598 265.124 485.149 265.927C483.618 265.272 482.098 264.543 480.525 263.824C481.771 265.959 482.383 271.076 477.674 272.133C473.261 273.127 467.032 269.554 464.002 268.2C459.494 266.192 456.485 263.908 459.694 260.969C461.151 259.637 458.163 259.352 458.449 258.147C458.797 256.709 458.491 255.334 458.301 253.886C462.249 254.7 464.181 251.571 462.059 251.972C457.34 252.871 459.177 251.095 458.807 249.467C458.111 246.412 450.931 241.2 454.352 238.292C453.56 238.398 452.631 238.123 451.829 238.208C452.325 235.565 452.811 232.922 453.307 230.289C454.099 230.554 455.239 230.511 455.989 230.807C456.21 229.116 452.23 228.947 454.722 227.35C457.298 225.701 457.477 226.103 460.803 225.955C456.337 223.671 463.833 220.13 467.465 218.914C468.035 218.724 470.505 217.592 471.192 217.666C472.29 217.783 473.324 218.713 472.596 219.136C471.213 219.939 475.193 220.087 476.281 220.595C479.881 217.127 481.855 216.8 488.316 215.171C493.289 213.924 497.903 211.873 503.213 212.761C517.667 215.171 494.493 222.857 490.301 224.464C492.529 226.061 495.306 223.185 497.945 223.375C500.479 223.555 502.464 226.409 505.188 226.156C506.845 225.997 513.095 225.162 512.071 223.534C511.564 222.72 506.433 222.794 504.945 222.678C507.605 221.229 510.266 219.781 512.926 218.322C507.31 217.423 508.788 216.049 508.587 212.782C510.466 212.899 512.113 212.433 513.486 211.662C510.868 209.79 502.949 209.241 499.096 208.543C501.26 205.688 501.936 205.392 506.856 204.029C509.664 203.257 512.589 206.111 513.201 207.634C516.136 205.34 515.334 205.488 512.071 203.394C511.089 202.76 513.665 199.419 514.056 198.658C515.101 196.565 516.136 194.482 517.181 192.389C517.15 192.463 520.813 192.97 521.848 191.691C522.64 190.719 526.588 187.346 525.817 186.363C524.709 184.957 522.65 183.952 525.026 183.001C530.843 180.686 535.531 178.36 542.414 177.472C539.268 176.214 539.12 175.823 535.583 176.647C532.258 177.419 532.437 177.292 529.534 176.098C527.169 175.114 523.843 174.512 524.086 172.757C524.487 169.828 523.284 172.027 521.373 170.41C519.567 168.887 516.907 168.063 519.747 166.868C522.249 165.822 524.741 164.764 527.243 163.718C528.541 163.179 537.505 168.221 539.437 168.697C545.877 170.272 548.464 168.454 553.004 171.879C555.432 173.719 556.308 173.877 555.411 176.076C555.052 176.954 554.872 179.713 557.258 178.032C558.652 177.06 562.442 175.474 560.954 174.321C559.423 173.137 557.786 171.182 555.738 170.294C553.616 169.374 550.903 170.177 551.23 168.369C551.589 166.34 552.022 166.498 555.347 165.726C551.979 162.491 551.441 167.069 550.111 167.746C547.419 169.109 544.959 167.672 542.34 166.889C535.341 164.796 526.82 163.633 523.917 159.288C527.074 159.415 530.22 159.542 533.377 159.669C536.09 159.774 533.757 157.501 534.876 156.561C536.048 155.567 541.39 154.774 543.291 154.245C545.824 153.548 545.37 152.903 545.772 151.253C541.559 152.268 533.387 155.207 532.078 150.461C531.234 147.405 529.08 143.768 529.798 140.681C531.529 133.271 534.031 126.695 537.653 119.506C532.405 120.246 529.006 113.416 535.636 113.469C540.049 113.501 541.443 114.114 543.407 111.905C545.011 110.097 546.616 108.289 548.21 106.481C549.213 105.35 554.672 104.282 556.593 103.648C559.423 102.718 559.919 103.902 562.178 105.202C564.585 106.587 565.969 106.872 565.747 108.754C565.472 111.112 565.187 113.459 564.913 115.816C564.702 117.561 563.519 119.146 566 120.235C568.407 121.303 570.413 119.791 568.513 118.523C565.24 116.345 567.003 111.609 569.748 109.367C573.306 106.46 576.896 101.037 583.399 100.931C585.997 100.889 586.556 101.237 587.411 99.8419C587.612 99.5142 588.921 98.087 588.309 97.8438C585.88 96.8818 583.463 95.9092 581.034 94.9471C586.239 92.2301 591.455 89.5131 596.66 86.7961C597.578 88.5511 598.497 90.306 599.415 92.061C603.797 90.2743 608.168 88.4982 612.549 86.7116L607.439 84.7452C610.839 82.2819 614.249 79.8186 617.649 77.3554C618.525 76.7211 620.499 75.9493 619.443 75.2621C617.786 74.1732 616.846 73.9935 614.682 75.1458C612.275 71.9214 610.723 71.3822 613.985 68.5384C617.068 65.8531 620.14 63.1678 623.223 60.4825C625.356 58.6324 632.451 57.0678 635.681 55.8837C641.235 53.8539 642.438 54.1076 642.227 50.3652C642.026 47.0033 646.408 45.6818 650.473 43.3348C652.69 42.0556 652.415 42.1085 655.466 42.7428C656.543 42.9648 659.647 44.0854 660.228 43.3348C662.656 40.1421 665.074 36.9493 667.502 33.7566C669.128 31.6211 673.246 31.3356 676.888 30.4687C672.528 27.3289 673.647 30.5956 668.959 29.4961C666.278 28.8618 666.816 26.832 668.189 25.7008C672.401 22.2332 676.614 18.7656 680.826 15.298C683.846 12.803 690.972 11.7775 695.575 10.4877C702.142 8.63762 705.014 7.44299 712.14 7.97159C710.8 5.6669 708.403 4.45113 712.425 3.3305C716.458 2.20987 720.492 1.08924 724.525 -0.020813C724.957 1.54384 724.641 6.02635 727.65 6.03692C728.822 6.03692 733.161 5.65633 733.763 6.2695C734.185 6.70296 736.75 8.82792 736.149 9.11336C728.938 12.581 722.529 16.038 712.742 15.2134C711.612 17.5181 716.353 17.6767 719.193 18.311C722.603 19.0722 721.653 20.4359 721.906 22.4869C725.549 22.2966 730.796 22.6455 733.858 21.4403C739.189 19.3365 738.661 19.5162 743.222 22.1592C732.453 27.5086 743.338 35.3953 749.04 40.861C746.622 40.935 741.987 40.7764 742.135 43.0705C742.177 43.7365 745.313 44.6669 744.658 45.3118C743.74 46.221 742.821 47.1196 741.903 48.0288C739.527 50.3652 739.707 50.048 743.243 51.7818C745.577 52.9236 747.899 54.0653 750.233 55.2071C752.429 52.4373 760.062 54.3296 764.074 54.6468C766.397 54.8371 764.253 56.6449 765.256 57.5224C766.122 58.273 771.232 58.8016 772.731 59.1293C775.128 59.6368 772.868 61.0746 773.597 62.2163C774.135 63.0621 776.785 64.1193 777.852 64.7536C781.462 66.9103 785.073 69.0564 788.695 71.2131C781.631 73.5283 774.167 71.5514 766.312 70.7056C762.057 70.251 757.803 69.7859 753.548 69.3313C751.215 69.0775 748.945 66.4768 747.15 65.5676C743.824 63.8973 742.789 63.8656 741.069 61.5397C739.041 58.791 737.014 56.0529 734.987 53.3042C733.541 51.3484 732.886 50.3652 730.194 48.9697C727.787 47.7222 723.912 46.4535 723.31 44.4554C721.78 45.3329 718.032 47.2359 722.329 48.0499C726.71 48.8745 727.238 48.6419 728.241 51.2109C729.349 54.0653 730.141 54.0759 725.739 55.482C723.342 56.2537 720.587 54.6679 718.327 53.9491C718.127 58.2518 721.537 60.7151 725.232 64.4682C730.257 62.5758 729.983 62.5969 734.818 64.6479C730.173 66.9314 731.535 68.8132 731.693 72.302C729.202 71.9425 726.245 72.1434 726.193 70.4202C724.609 71.3294 722.487 72.1223 721.991 73.4015C721.516 74.6172 721.399 76.2665 720.375 77.366C719.267 78.5712 712.658 84.0369 713.904 85.0095C720.46 90.1263 726.752 94.4714 730.5 100.445C733.298 99.7362 736.096 99.0173 738.894 98.309C735.568 97.3047 738.397 94.3234 741.09 94.4608C745.735 94.704 750.37 94.9577 755.015 95.2009C759.597 95.444 770.071 97.6853 773.27 99.6516C778.622 102.94 785.052 105.974 788.504 110.054C790.616 112.56 799.664 120.912 788.04 120.806C788.948 122.18 789.856 123.121 791.281 124.337C791.893 124.866 791.26 125.5 792.369 125.68C793.034 125.786 795.251 125.934 795.726 126.23C797.32 127.266 795.473 129.443 797.468 130.67C799.516 131.938 799.326 131.716 801.997 131.896C804.858 132.086 808.385 131.516 811.256 131.357C813.516 131.22 815.691 132.552 817.528 133.239C822.004 134.909 821.402 138.25 818.351 140.216C817.074 141.041 806.875 138.197 804.784 137.478C802.874 136.823 806.854 135.765 802.229 136.643C800.086 137.055 799.516 139.233 797.331 138.176C795.325 137.203 792.675 134.92 789.961 136.04C787.977 136.865 788.842 139.001 788.842 140.163C788.863 144.339 782.201 140.111 780.269 138.778C777.123 139.603 777.683 142.373 778.876 143.906C781.251 146.972 780.713 147.49 786.509 147.606C793.224 147.733 788.272 145.83 788.631 144.128C788.863 143.018 794.533 140.713 796 139.867C799.706 142.563 797.383 142.521 797.88 145.502C798.196 147.374 799.717 149.646 803.56 149.636C807.73 149.636 826.069 148.082 823.926 153.389C828.001 151.349 831.168 153.569 834.124 155.81C836.785 157.829 838.569 160.483 840.681 162.713C842.549 164.68 841.758 168.866 842.117 171.097C842.539 173.772 840.987 175.178 839.023 177.683C838.073 178.899 836.806 179.872 837.197 181.183C837.725 182.969 838.485 183.339 835.961 184.428C834.23 185.179 832.931 183.35 831.126 184.196C829.944 184.745 828.708 186.183 828.603 187.061C827.737 194.112 839.91 193.161 848.156 193.298C854.997 193.404 868.363 196.924 867.941 201.967C867.835 203.162 865.449 203.785 865.776 205.118C865.988 205.974 867.339 208.257 866.748 209.05C864.309 212.285 860.635 209.441 857.056 209.378C851.597 209.272 847.1 209.346 841.747 209.907C840.776 210.012 838.949 207.877 838.274 209.093C837.893 209.769 839.995 210.657 840.575 211.017C843.996 213.121 846.91 215.848 851.766 216.673C856.391 217.455 860.128 217.032 864.858 217.307C871.298 217.688 881.254 220.521 887.177 223.259C884.464 224.559 883.06 224.972 879.628 225.458C882.51 225.342 890.344 224.147 892.656 225.067C897.376 226.938 898.231 226.642 903.869 225.902C905.643 227.985 907.416 230.078 909.19 232.161L909.084 232.129ZM493.817 284.27C492.941 283.731 492.392 284.016 491.22 283.942C492.085 284.037 492.951 284.164 493.817 284.27ZM665.296 362.502C665.148 362.407 665.253 362.471 665.296 362.502V362.502ZM718.032 358.284C717.388 357.882 717.398 357.882 718.032 358.284V358.284ZM584.36 255.356C582.576 253.96 584.307 250.799 581.963 250.334C581.383 253.537 581.055 254.15 577.16 256.413C579.609 257.893 581.784 253.41 584.36 255.356ZM603.649 259.923C604.937 259.214 611.198 255.916 606.204 255.535C600.566 255.102 599.078 255.493 593.894 256.941C591.265 257.681 588.034 257.702 585.68 256.666C582.375 258.316 587.221 261.265 581.963 262.132C578.669 262.671 574.14 261.329 574.721 259.235C571.342 259.341 570.825 260.123 571.036 261.815C571.121 262.502 570.878 263.697 571.342 264.342C571.617 264.722 573.57 264.68 573.845 265.061C576.231 268.338 572.25 269.384 578.068 271.562C580.897 272.62 586.904 272.334 587.665 269.765C588.763 266.065 589.09 265.113 593.756 262.534C598.117 261.9 600.44 261.678 603.649 259.923ZM680.298 288.678C677.089 288.224 674.513 289.577 671.841 289.207C669.265 288.847 666.626 286.596 664.81 286.501C656.67 286.056 648.541 285.612 640.401 285.168C637.824 285.031 637.37 287.463 634.731 286.649C632.63 286.004 629.368 284.481 627.32 284.83C630.614 287.198 636.283 287.019 641.013 287.304C648.372 287.759 650.705 287.674 656.079 290.539C656.079 290.296 656.079 290.053 656.079 289.81C663.163 290.761 671.82 291.268 678.292 292.421C681.681 293.023 683.941 294.916 687.615 294.609C691.51 294.281 695.406 293.954 699.302 293.626C693.675 290.37 687.889 289.757 680.298 288.689V288.678ZM632.155 239.857C628.84 237.796 624.089 239.413 619.538 238.758C616.139 238.271 613.278 235.1 617.459 233.831C616.572 233.366 612.665 230.871 611.958 231.315C610.058 232.499 609.002 233.218 607.978 234.698C606.172 237.299 606.51 239.92 609.614 242.172C610.691 242.955 611.905 241.263 612.919 241.538C614.08 241.855 615.315 242.923 616.223 243.451C618.081 244.53 620.468 244.086 623.044 244.065C626.718 244.033 633.19 242.923 635.702 245.037C632.356 245.989 632.345 246.295 634.066 247.913C635.987 249.71 635.987 249.404 639.619 249.076C641.182 248.938 652.489 247.405 649.248 245.534C648.002 244.815 646.799 242.405 645.679 242.056C644.17 241.58 640.548 243.335 639.186 242.553C637.349 241.485 634.625 240.893 636.705 239.688C638.637 238.578 639.767 237.954 637.085 236.633C632.936 235.026 633.802 238.662 632.166 239.846L632.155 239.857ZM933.283 197.886C940.842 195.56 941.18 195.032 941.465 190.063C935.954 190.211 936.883 190.592 936.334 193.71C936.028 195.476 931.256 195.254 929.45 195.962C923.221 198.394 929.936 203.352 932.765 205.963C933.737 206.862 935.278 209.431 936.872 209.547C942.056 209.938 940.145 211.154 943.418 213.047C944.748 213.818 949.098 211.387 947.969 210.573C945.54 208.818 943.122 207.063 940.694 205.297C942.816 206.101 951.495 210.837 953.638 207.919C955.897 204.832 944.812 202.168 941.613 201.639C939.976 201.365 941.644 198.5 941.887 197.601C942.024 197.104 939.311 197.104 938.593 197.03C937.421 196.914 937.58 197.992 937.368 198.552C935.901 202.401 930.949 201.777 933.272 197.886H933.283ZM952.466 190.317C950.967 187.79 951.822 187.293 947.546 186.796C946.712 186.701 946.005 187.505 945.097 187.23C943.524 186.743 941.951 186.268 940.378 185.781C941.18 186.881 942.299 189.989 943.925 190.655C945.867 191.448 951.083 191.501 952.466 190.317ZM962.454 194.017C963.003 191.712 968.408 193.943 967.279 190.782C961.926 190.486 960.543 190.592 957.629 193.235C956.964 193.837 955.95 195.592 957.544 195.835C961.313 196.406 960.838 196.068 962.454 194.017ZM928.247 230.416C932.881 231.188 933.43 228.249 937.157 228.059C942.405 227.794 942.352 226.166 942.595 223.396C938.424 224.285 933.188 224.306 929.556 225.585C924.668 227.308 919.864 229.063 915.071 230.871C912.157 231.97 911.956 231.991 911.312 233.979C910.921 235.184 912.737 236.241 914.807 235.491C919.336 233.842 923.844 232.192 928.247 230.416ZM947.726 224.411C948.528 223.375 949.341 222.339 950.143 221.303C950.692 220.595 953.247 220.563 953.638 219.939C954.546 218.47 952.698 218.174 950.893 217.952C949.246 217.751 947.937 219.178 946.86 219.855C947.947 220.161 948.824 220.743 949.932 221.018C945.15 221.673 945.033 221.599 943.672 224.306C944.97 224.337 946.427 224.496 947.726 224.401V224.411ZM962.897 219.707C956.964 218.999 957.122 218.935 953.564 221.768C958.283 221.557 959.571 221.631 962.897 219.707ZM962.865 212.687C958.452 214.061 952.456 216.176 955.243 219.168C960.49 216.958 961.166 216.313 962.865 212.687ZM971.628 214.368C971.797 211.577 973.275 210.71 976.221 208.469C971.818 207.803 967.986 208.606 967.521 211.566C967.426 212.137 966.254 215.129 966.898 215.542C968.926 216.842 970.879 215.499 971.639 214.368H971.628ZM1030.51 163.411C1026.39 160.736 1022.22 161.709 1016.18 161.963C1015.51 165.156 1021.19 163.887 1024.83 163.76C1021.21 164.606 1025.16 165.811 1024.64 167.196C1023.89 169.215 1018.37 170.621 1021.69 172.175C1024.25 173.37 1027.4 171.002 1028.88 169.395C1031.07 167.027 1030.18 165.906 1027.2 164.363C1028.74 164.986 1029.79 164.468 1030.52 163.411H1030.51ZM1043.18 164.849C1044.81 162.016 1034.53 160.472 1033.12 163.464C1037.01 164.521 1038.89 164.881 1043.18 164.849ZM1046.12 164.384C1048.52 164.712 1052.07 162.787 1049.85 162.343C1046.7 161.709 1045.56 161.307 1042.85 162.724C1043.94 163.274 1045.03 163.823 1046.12 164.384ZM1050.07 166.403C1053.03 166.91 1054.59 167.365 1057.2 166.139C1055.34 164.68 1052.76 164.542 1049.94 164.141C1049.98 164.87 1049.82 165.695 1050.06 166.403H1050.07ZM1055.11 163.897C1056.83 163.982 1058.54 164.067 1060.26 164.162C1059.86 163.601 1060.01 162.883 1059.52 162.354C1062.41 163.496 1063.95 163.802 1067.43 164.119C1064.38 165.874 1071.71 166.932 1073.91 165.008C1071.61 164.215 1069.77 162.883 1067.49 164.098C1065.51 160.8 1065.63 161.138 1059.63 161.477C1055.17 161.73 1054.59 161.18 1050.34 162.745C1051.93 163.136 1053.51 163.517 1055.11 163.908V163.897ZM1066.17 170.537C1067.27 170.642 1074.66 171.499 1072.15 169.078C1069.49 166.519 1066.9 169.395 1066.17 170.537ZM1094.56 165.631C1094.94 167.154 1095.03 169.458 1098.89 169.035C1100.98 168.803 1104.82 171.044 1104.98 167.777C1102.91 167.228 1100.81 167.09 1099.92 168.486C1100.51 166.414 1097.17 166.255 1094.56 165.631ZM1112.67 175.167C1115.94 175.844 1116.33 174.469 1117.54 173.074C1115.71 173.201 1113.89 173.328 1112.07 173.455C1112.26 173.983 1112.25 174.691 1112.67 175.167ZM1132.33 158.569C1133.24 162.195 1133.8 162.925 1140.22 162.957C1137.6 161.498 1134.97 160.039 1132.33 158.569ZM895.729 191.987C899.044 190.349 897.693 187.98 897.481 185.75C897.144 182.198 895.729 182.821 889.679 182.039C890.281 183.477 892.023 184.756 892.319 186.162C892.709 188.076 891.844 191.268 895.729 191.987ZM899.91 175.95C898.03 176.436 896.162 176.912 894.282 177.398C895.739 178.275 897.196 179.153 898.653 180.03C900.269 181.003 901.799 180.189 903.489 180.855C906.878 182.198 912.378 182.198 908.609 179.132C908.841 179.163 909.074 179.195 909.295 179.227C909.01 177.06 909.295 176.024 905.727 174.871C907.015 174.987 908.24 174.438 909.053 173.624C904.122 171.15 902.063 170.325 898.199 173.74C900.11 173.909 902.042 174.025 903.869 174.364C902.729 174.755 901.895 175.453 900.786 175.876C902.655 177.007 904.344 178.624 907.099 178.92C904.376 178.973 901.958 177.007 899.91 175.96V175.95ZM924.404 180.421C924.34 177.852 920.888 177.852 918.101 176.362C914.965 174.691 912.885 175.453 908.704 175.886C911.259 177.017 914.923 178.476 911.935 180.612C909.591 182.282 908.504 185.602 912.748 186.754C913.814 185.581 915.018 184.502 915.387 183.181C919.114 184.122 920.233 184.227 924.256 183.826C927.201 183.53 926.241 180.221 921.595 180.844C922.186 180.411 923.2 180.485 924.414 180.411L924.404 180.421ZM879.903 168.38C875.975 167.407 875.469 166.942 871.847 168.221C869.577 169.025 868.543 170.981 870.443 172.196C874.434 174.744 880.505 177.271 886.966 176.827C886.596 176.986 886.227 177.155 885.868 177.313C887.462 177.831 891.453 179.66 893.417 178.392C896.141 176.626 889.943 176.193 888.824 176.098C889.077 172.915 893.353 175.601 894.662 174.956C897.946 173.349 897.946 171.678 893.132 171.499C889.584 171.361 888.064 173.264 885.023 172.831C882.215 172.44 882.468 169.68 879.892 168.369L879.903 168.38ZM839.963 183.445C836.722 185.824 839.646 190.401 844.682 187.97C846.139 187.262 847.227 185.443 846.034 184.396C843.626 182.282 843.964 182.356 839.963 183.434V183.445ZM844.038 161.857C848.578 164.68 849.423 164.955 856.053 165.24C857.584 162.671 847.881 159.034 845.062 157.438C844.714 158.908 844.376 160.388 844.028 161.857H844.038ZM834.177 137.224C836.489 135.702 838.516 138.461 841.261 138.525C846.34 138.652 843.246 135.364 841.652 133.778C839.224 131.378 823.134 133.704 834.177 137.224ZM837.492 126.684C832.572 128.048 835.55 133.186 840.871 132.922C841.346 129.454 842.085 128.904 837.492 126.684ZM830.271 132.879C834.958 131.241 832.023 129.158 834.642 126.959C836.679 125.246 846.129 126.705 842.349 122.973C840.871 121.514 842.381 121.314 844.344 120.13C845.368 119.506 844.281 117.296 844.154 116.493C843.721 113.755 838.474 113.131 834.6 111.767C833.533 111.397 830.376 110.678 830.503 109.928C830.778 108.31 831.348 108.215 828.634 107.898C824.644 107.433 817.095 105.297 817.285 109.029C817.464 112.571 820.062 111.524 823.493 113.247C825.066 114.03 832.9 118.85 825.794 118.565C827.156 120.616 828.476 123.164 832.477 123.629C824.929 123.164 824.39 133.207 830.25 132.89L830.271 132.879ZM806.178 97.5584C808.152 100.603 797.848 99.8525 795.388 99.6516C793.572 103.384 799.569 102.252 802.409 103.965C805.217 105.667 802.589 108.744 807.825 109.219C811.71 109.579 819.037 110.319 815.86 106.46C814.857 105.234 811.32 107.189 810.971 105.583C810.602 103.902 814.582 104.494 816.482 104.536C812.397 102.02 811.362 100.043 815.099 96.9347C813.252 96.6598 811.404 96.3849 809.557 96.11C811.489 94.3657 810.158 92.0715 809.789 90.1686C807.783 90.528 805.196 90.3906 805.576 91.7332C806.073 93.4459 805.809 95.2114 808.965 96.036C808.237 95.9409 807.519 95.8457 806.79 95.7612C806.6 96.3215 806.104 96.9981 806.178 97.5584ZM807.308 85.4641C806.833 85.0095 805.872 84.6395 805.217 84.2589C803.401 86.9864 803.76 88.5194 808.237 90.3166C809.208 88.3291 808.511 87.3353 807.308 85.4746V85.4641ZM791.946 70.547C787.164 72.2068 787.945 73.2957 791.862 75.3784C794.945 74.2049 792.728 72.1646 791.946 70.547ZM796.085 78.9729C802.008 78.5077 796.138 75.463 794.258 74.3741C790.426 76.7845 792.221 76.7422 796.085 78.9729ZM778 92.5896C775.36 89.5343 766.935 89.9466 761.793 89.4286C755.48 88.7942 748.765 87.6208 742.304 87.9591C744.352 89.1748 746.675 91.2575 749.219 92.0715C752.344 93.0759 757.739 93.1287 761.223 93.5516C767.917 94.3762 772.33 97.0509 778.654 98.1821C782.37 98.8482 799.009 102.77 793.868 96.7021C792.21 94.7463 774.019 96.7972 778 92.5896ZM771.918 52.4161C773.333 52.5641 780.607 53.3465 780.438 51.9298C780.069 48.8111 773.903 51.0206 771.918 52.4161ZM785.675 49.4983C784.556 46.7813 780.47 48.8534 777.619 49.5934C781.473 51.1475 781.536 50.8092 785.675 49.4983ZM802.705 45.6606C805.228 44.54 805.555 43.6097 803.412 42.2142C801.406 43.0705 799.4 43.9268 797.394 44.7937C799.168 45.0792 800.941 45.3752 802.705 45.6606ZM826.09 34.6975C825.351 34.1055 824.19 33.598 823.282 33.08C822.057 34.0103 820.843 34.9512 819.618 35.8816C821.825 36.241 824.031 36.6005 826.227 36.9705C826.185 36.2304 826.301 35.427 826.079 34.7081L826.09 34.6975ZM829.247 23.9987C828.191 22.4129 823.757 21.8314 824.221 23.8507C824.612 25.5528 824.285 26.9906 827.948 27.2443C828.381 26.1659 828.814 25.0876 829.247 24.0093V23.9987ZM825.805 11.0797C826.048 12.5281 826.291 13.9765 826.523 15.4354C828.191 15.0019 829.859 14.5685 831.527 14.1245C829.616 13.1096 827.705 12.0947 825.794 11.0797H825.805ZM830.64 10.012C828.56 9.18737 826.481 8.37333 824.401 7.54871C825.404 10.012 825.678 10.7943 828.962 12.4647C829.521 11.6401 830.081 10.826 830.64 10.0014V10.012ZM747.635 5.04316C749.451 4.5357 751.257 3.99653 753.02 3.43622C749.272 1.39583 746.083 -1.08858 742.124 2.73847C739.01 5.75148 746.136 8.9865 747.635 5.05373V5.04316ZM48.3016 426.579C47.098 425.67 46.0634 424.898 44.1524 425.12C42.5054 425.31 36.8993 425.374 36.7937 426.431C36.6987 427.478 42.1148 427.89 43.6879 428.165C46.8447 428.736 46.5279 428.218 48.3016 426.579ZM5.395 399.24C9.67088 399.769 12.3842 393.573 4.45536 394.895C-0.137254 395.667 0.253382 395.55 0.0211115 398.341C-0.179485 400.678 1.01354 400.371 4.78265 401.196C4.97269 400.604 5.49002 399.832 5.395 399.24ZM72.9117 467.915C76.2585 464.839 74.4004 464.3 68.7309 465.167C70.1245 466.086 71.5181 466.996 72.9117 467.915ZM65.5424 471.425C67.0205 471.901 68.4986 472.377 69.9767 472.852C70.1245 470.928 71.1802 469.406 72.3416 467.619C66.4715 467.239 67.3372 468.285 65.5424 471.436V471.425ZM51.9124 480.951C53.2743 481.553 54.6363 482.156 55.9982 482.758C55.9982 481.035 55.9771 479.312 55.9665 477.589C53.6438 478.445 49.1146 479.143 51.9124 480.951ZM50.107 480.94C48.9245 481.225 44.5853 481.828 44.9654 482.568C46.1479 484.883 46.6652 484.461 50.8038 484.471C50.5715 483.298 50.3393 482.114 50.1176 480.94H50.107ZM39.0003 484.852C30.6069 484.143 34.7666 488.806 40.2672 487.4C39.8449 486.554 39.4226 485.697 39.0003 484.852ZM824.221 326.991C825.446 327.53 826.681 328.059 827.906 328.598C828.17 327.107 828.434 325.606 828.698 324.116C827.008 324.242 825.33 324.369 823.641 324.496C823.831 325.331 824.031 326.167 824.221 327.002V326.991ZM819.586 330.776C822.648 334.159 825.003 331.104 826.291 329.042C823.134 328.714 821.244 329.18 819.586 330.776ZM783.68 320.733C780.702 322.308 785.939 328.059 786.931 330.131C788.082 332.531 777.461 335.11 783.384 338.229C786.087 339.646 788.779 341.073 791.482 342.49C793.15 343.367 790.795 346.232 792.474 347.099C794.934 348.368 797.394 349.626 799.854 350.894C800.656 351.307 806.822 351.539 807.445 351.095C809.419 349.657 810.655 348.939 811.119 347.152C811.858 344.329 811.204 344.53 807.054 342.934C803.834 341.686 802.567 333.905 801.554 331.706C800.709 329.888 801.131 329.867 797.806 329.782C793.921 329.687 797.911 326.389 797.964 326.452C795.884 323.65 788.336 322.086 783.69 320.743L783.68 320.733ZM767.378 328.926C770.609 330.533 771.359 328.778 774.42 329.412C779.266 330.416 777.187 327.678 775.92 326.304C775.064 326.97 774.22 327.625 773.365 328.291C773.006 327.551 772.055 326.907 771.718 326.167C770.271 327.086 768.825 328.006 767.378 328.926ZM778.073 309.241C778.147 310.774 779.076 311.049 781.241 310.932C784.313 310.763 783.268 310.044 783.088 308.374C781.42 308.659 779.742 308.955 778.073 309.241ZM777.292 302.57C780.913 303.067 782.159 303.479 784.598 301.534C782.423 300.974 780.248 300.424 778.073 299.863C777.82 300.762 777.556 301.671 777.303 302.57H777.292ZM786.372 304.959C787.354 304.769 788.378 304.166 789.243 303.817C787.037 302.401 786.53 301.016 783.764 302.327C781.473 303.416 783.775 305.118 786.372 304.959ZM796.866 261.371C795.272 261.762 793.678 262.153 792.083 262.544C795.061 263.908 796.159 264.987 799.706 263.507C798.756 262.798 797.816 262.079 796.866 261.371ZM802.99 266.71C803.94 266.699 805.059 266.308 805.967 266.139C804.267 263.2 804.056 263.655 798.756 264.025C800.171 264.923 801.575 265.811 802.99 266.71ZM805.513 269.099C809.535 269.469 809.303 268.422 809.884 266.509C806.653 266.921 804.573 266.794 805.513 269.099ZM449.844 356.867C451.744 356.561 453.634 356.254 455.535 355.948C452.241 353.421 449.823 353.569 449.844 356.867ZM461.183 349.922C456.221 350.144 455.872 349.763 454.901 352.596C456.823 352.713 458.617 352.544 459.483 351.571C460.761 353.178 461.215 354.658 464.963 354.277C466.335 351.486 463.675 351.867 459.663 351.391C460.138 350.926 460.528 350.292 461.183 349.922ZM470.6 352.427C474.348 353.125 473.979 350.715 474.57 349.203C471.846 349.985 467.539 350.366 470.6 352.427ZM498.811 348.251C502.569 349.023 502.622 348.04 503.646 346.243C501.883 346.158 500.12 346.074 498.346 345.989C498.494 346.708 498.441 347.554 498.811 348.241V348.251ZM523.22 353.516C522.534 352.279 521.848 351.053 521.161 349.816C520.591 351.042 520.021 352.269 519.451 353.495C520.655 353.495 522.027 353.622 523.21 353.506L523.22 353.516ZM513.159 356.497C516.284 356.846 517.741 357.216 519.726 355.472C515.355 353.971 515.809 353.96 513.138 356.466C512.895 356.096 512.641 355.736 512.399 355.366C509.295 355.821 508.556 356.751 509.157 358.538C510.899 358.464 512.641 358.39 514.383 358.316C514.003 357.745 513.771 356.984 513.159 356.497ZM532.321 384.503C527.897 383.741 528.119 384.756 527.105 386.902C530.452 387.072 531.93 386.448 532.321 384.503ZM534.042 385.095C538.191 386.342 538.117 385.095 539.458 383.044C535.816 383.033 533.398 382.441 534.042 385.095ZM533.767 388.213C537.357 388.509 539.606 389.292 540.049 386.691C538.297 386.427 536.544 386.152 534.792 385.888L533.778 388.213H533.767ZM155.896 556.212C156.835 556.826 158.493 558.528 159.95 558.359C163.054 558.01 164.289 557.946 163.677 555.811C161.079 555.948 158.493 556.075 155.896 556.212ZM164.669 555.155C164.426 556.033 164.173 556.91 163.93 557.788C165.619 557.904 167.298 558.01 168.987 558.126C169.103 557.174 169.23 556.234 169.346 555.282C167.784 555.24 166.221 555.198 164.669 555.166V555.155ZM170.613 554.669C171.046 556.392 170.571 558.2 174.361 558.454C174.921 557.544 175.491 556.635 176.05 555.726C174.234 555.367 172.418 555.018 170.613 554.658V554.669ZM186.08 555.198C182.828 555.271 179.46 555.102 176.451 555.927C178.954 557.989 180.242 559.669 184.327 560.536C188.044 561.319 186.376 555.874 186.08 555.198ZM306.248 627.457C308.856 630.459 311.854 628.514 312.762 626.326C309.954 625.871 308.096 626.146 306.248 627.457ZM314.863 627.002C316.996 627.119 325.748 627.002 321.62 624.084C321.377 623.915 316.352 623.556 316.056 623.693C315.243 624.063 315.096 626.357 314.863 626.992V627.002ZM423.819 437.415C421.634 438.969 422.901 439.741 425.899 440.111C426.226 439.212 426.543 438.324 426.87 437.426C425.962 437.426 424.706 437.288 423.819 437.415ZM432.065 437.341C430.249 437.162 428.422 436.971 426.606 436.792C427.799 438.705 427.799 439.667 431.801 439.604C431.885 438.895 432.223 438.06 432.065 437.352V437.341ZM438.051 440.122C438.653 439.752 438.991 439.128 439.413 438.673C437.713 438.409 436.013 438.145 434.324 437.88C433.511 439.752 434.345 439.963 437.069 440.492C439.202 440.915 437.629 442.786 441.261 442.299C440.131 443.706 441.229 444.499 443.889 444.499C442.105 444.943 442.179 447.268 444.987 446.856C447.68 446.454 447.014 444.456 444.945 444.361C445.484 443.758 445.441 442.976 445.927 442.363C444.702 442.395 443.446 442.014 442.211 442.056C442.791 441.507 442.622 440.693 443.214 440.143C441.493 440.143 439.772 440.143 438.051 440.143V440.122ZM447.447 446.856C443.763 448.981 451.628 448.854 453.402 448.822C453.149 447.797 452.547 446.201 451.026 445.535C449.073 444.678 447.036 445.291 447.447 446.856ZM415.911 442.849C417.474 442.173 419.047 441.507 420.61 440.83C416.292 438.124 413.821 439.487 412.554 442.701C413.589 442.744 414.908 442.976 415.911 442.849ZM397.858 452.977C401.31 453.453 401.627 447.649 406.99 449.742C405.66 447.205 409.112 445.778 412.343 444.562C409.893 441.623 403.728 443.304 399.441 444.435C394.711 445.683 393.645 446.666 393.708 449.499C395.144 448.875 396.834 448.526 398.09 449.319C396.939 450.112 395.788 450.916 394.648 451.709C395.672 452.11 396.728 452.702 397.858 452.988V452.977ZM647.812 537.87L646.799 540.862C648.614 540.904 650.43 540.946 652.236 540.989C652.162 539.297 652.077 537.616 652.003 535.925C650.61 536.57 649.206 537.225 647.812 537.87ZM653.154 536.919C653.006 538.335 652.067 539.688 654.939 540.249C656.892 537.711 657.768 536.623 657.23 533.895C655.16 534.117 653.091 534.35 651.022 534.572C651.729 535.354 652.447 536.136 653.154 536.919ZM400.919 293.996C403.591 292.918 411.192 291.586 412.237 289.767C413.81 287.05 416.08 283.022 412.058 280.612C409.345 278.994 408.415 279.364 404.456 279.555C399.674 279.787 403.643 280.781 401.901 282.198C400.497 283.339 397.984 282.071 396.263 283.868C395.398 284.767 395.778 286.892 395.905 287.949C393.677 286.923 394.743 285.591 390.51 286.279C388.335 286.627 386.213 290.296 387.638 291.617C389.918 293.721 393.36 289.958 393.381 292.632C393.392 293.985 395.461 293.584 396.665 292.971C398.692 291.934 399.156 292.981 400.919 294.007V293.996ZM409.144 219.865C408.69 218.872 408.236 217.878 407.793 216.884C409.83 216.683 410.601 218.903 411.9 219.961C413.948 221.631 415.51 221.568 419.036 222.033C417.717 219.02 416.545 216.218 416.028 213.121C415.647 210.848 416.313 210.731 412.332 210.89C409.893 210.985 408.247 211.672 405.628 211.63C406.008 211.63 397.541 218.851 397.161 218.47C398.364 219.665 399.019 221.462 401.563 221.377C404.435 221.282 407.856 221.737 409.165 219.865H409.144ZM411.266 209.928C417.844 210.826 420.81 208.162 421.264 204.79C421.56 202.644 422.689 201.195 417.96 200.963C414.708 200.804 411.741 201.777 412.617 203.764C408.521 202.802 408.183 205.266 409.809 206.777C408.489 206.936 405.755 205.858 405.364 205.932C403.094 206.376 403.253 208.078 403.221 209.093C403.137 212.01 408.532 212.211 411.266 209.928ZM419.86 212.571C418.751 214.505 419.237 214.791 422.193 215.267C425.266 215.764 426.269 213.3 426.976 212.18C428.243 210.171 426.11 209.716 423.418 209.336C419.67 208.807 419.976 211.239 419.86 212.571ZM453.581 179.089C453.877 178.328 455.207 176.647 454.204 176.066C452.283 174.956 451.238 174.226 450.72 172.63C448.313 173.032 447.384 173.529 446.983 174.839C446.634 175.981 444.333 176.859 444.46 177.768C444.998 181.394 450.034 181.14 453.571 179.1L453.581 179.089ZM459.409 169.427C459.43 168.634 459.927 165.674 457.129 165.705C456.348 165.705 454.901 167.016 454.595 167.439C453.951 168.348 452.431 167.397 451.839 167.904C448.102 171.108 456.326 172.26 459.409 169.437V169.427ZM467.296 164.532C469.26 163.189 467.813 161.424 464.519 161.625C461.711 161.794 460.655 163.771 459.747 164.955C463.189 165.684 464.688 166.414 467.285 164.532H467.296ZM470.009 162.618C470.231 161.614 470.527 155.672 465.754 157.575C459.8 159.944 466.536 161.318 470.009 162.618ZM499.117 178.698C497.829 177.25 494.978 175.357 495.865 173.74C497.174 171.34 497.903 169.215 498.462 166.71C498.8 165.187 502.453 163.57 500.827 162.629C496.309 160.018 496.551 160.25 490.702 161.762C497.375 166.16 487.746 168.465 486.648 172.44C486.163 174.184 488.749 177.313 489.488 179.026C490.417 181.183 491.473 182.906 493.099 184.925C496.171 183.868 499.244 182.811 502.316 181.743C501.25 180.728 500.194 179.703 499.128 178.688L499.117 178.698ZM496.235 190.444C499.275 193.256 503.625 192.209 506.729 190.444C508.819 189.26 515.946 190.486 514.257 187.388C512.536 184.227 508.767 186.521 504.48 185.158C498.557 183.276 498.779 183.773 493.5 186.225C496.583 187.769 499.254 188.213 496.224 190.444H496.235ZM507.69 118.1C504.839 118.427 498.864 118.977 500.943 121.271C501.598 121.99 500.584 123.301 499.983 124.031C498.663 125.606 499.613 125.775 501.366 127.192C502.559 126.589 506.792 125.088 506.909 124.21C507.172 122.18 507.426 120.14 507.69 118.11V118.1ZM512.272 126.039C514.204 124.919 516.653 124.168 514.795 122.455C518.913 122.075 520.729 121.747 521.088 118.988C521.309 117.307 521.922 117.032 519.388 116.228C518.1 115.816 515.587 114.939 514.046 115.087C513.127 115.171 510.836 115.89 511.163 116.408C512.641 118.755 510.91 117.402 510.16 119.157C508.851 122.223 509.759 123.417 512.282 126.039H512.272ZM530.473 118.787C530.041 117.857 528.13 115.636 529.038 114.812C531.413 112.666 532.163 112.75 529.038 110.943C525.691 109.008 518.617 113.808 516.696 114.801C521.256 116.387 525.543 117.613 530.473 118.787ZM600.461 69.437C595.815 67.2803 597.082 67.2803 600.123 64.3413C598.349 63.9184 596.48 63.6224 594.569 63.6541C596.206 62.026 599.278 63.4744 600.577 61.6666C601.516 60.3557 599.658 58.1778 596.977 58.4527C592.479 58.9285 591.582 58.5161 590.579 61.1063C589.935 62.7872 585.606 63.707 584.909 65.3033C584.761 65.6416 587.517 66.3923 587.369 66.7306C587.116 67.3014 584.772 68.2846 584.086 68.6969C580.876 70.621 583.642 70.9488 586.683 72.7037C587.76 73.3275 593.588 72.3231 595.034 72.2068C599.732 71.8262 599.817 72.1751 600.461 69.4158V69.437ZM609.815 54.3191C609.234 51.7501 608.358 49.9634 603.417 51.1475C602.477 51.3695 598.634 56.5286 597.547 57.607C598.602 57.7973 603.332 59.013 603.955 58.569C605.908 57.1524 607.862 55.7357 609.804 54.3191H609.815ZM605.402 65.3562C605.528 67.6292 606.204 68.6124 608.052 70.6316C611.451 68.2529 613.088 66.7517 614.756 63.8338C610.49 63.8233 609.097 64.0981 605.402 65.3562ZM676.191 9.95912C677.88 6.07921 665.412 8.10903 666.636 11.7458C667.555 14.4945 667.893 14.1562 672.697 14.5474C673.805 14.6425 675.706 10.6886 676.191 9.96969V9.95912ZM810.412 242.045C809.546 242.067 799.294 242.267 803.338 244.202C804.489 244.752 806.347 245.365 807.287 246.052C807.751 246.401 805.439 246.634 806.495 247.078C807.529 247.501 808.564 247.934 809.599 248.357C813.906 250.133 815.765 248.589 816.915 246.116C817.771 244.266 812.027 243.716 810.412 242.035V242.045ZM391.196 449.858C391.196 449.002 391.196 448.146 391.185 447.289C383.182 448.812 372.445 449.013 365.921 452.057C363.682 453.104 358.625 456.614 359.185 458.284C360.23 461.435 367.652 456.371 367.831 454.711C372.012 455.018 376.077 451.254 381.44 452.607C381.187 452.544 383.161 454.299 383.489 454.447C384.555 454.933 385.537 454.235 386.635 453.855C389.697 452.797 389.929 451.804 391.206 449.848L391.196 449.858ZM370.397 446.697C373.575 446.454 376.299 447.141 379.635 447.48C379.878 445.387 378.083 445.196 375.211 444.414C375.042 444.964 374.398 445.545 374.377 446.095C374.81 443.737 369.764 443.494 367.314 444.763C368.338 445.408 369.373 446.053 370.397 446.697ZM385.6 445.45C386.35 442.543 382.074 441.898 379.181 444.076C381.018 445.133 383.172 445.196 385.6 445.45ZM367.779 438.821C364.896 439.064 364.274 440.323 364.907 441.813C367.979 440.196 369.383 442.86 372.224 441.041C370.566 442.574 373.036 442.86 375.116 443.674C376.288 444.128 379.762 442.86 381.06 442.553C379.466 441.253 374.557 440.513 372.414 440.777C371.316 439.318 371.062 437.711 367.779 438.811V438.821ZM385.664 458.728C390.742 458.083 392.336 457.555 391.671 454.489C389.031 454.753 380.564 456.878 385.664 458.728ZM399.188 507.381C399.769 507.909 403.717 513.28 405.216 511.292C407.37 508.427 404.805 506.387 399.188 507.381ZM152.813 361.9C154.027 360.684 156.698 358.94 157.11 357.565C157.585 355.969 154.924 354.299 156.159 352.723C159.253 348.822 162.093 346.37 166.992 343.145C164.405 343.082 161.818 343.018 159.232 342.944C154.776 342.828 154.66 342.373 154.027 345.006C153.636 346.623 150.342 345.228 148.854 345.228C144.43 345.228 144.345 345.302 141.495 347.279C138.898 349.076 140.27 348.981 143.237 350.514C144.652 351.243 143.775 354.372 143.807 355.409C143.828 356.011 143.237 358.908 144.229 359.214C147.09 360.113 149.952 361.001 152.813 361.9ZM151.018 333.757C158.007 337.172 156.286 328.81 156.117 327.329C153.9 328.059 151.662 329.01 149.318 329.56C145.232 330.533 145.549 329.338 145.549 332.467C145.549 333.662 140.851 335.639 139.447 336.485C137.8 337.479 139.573 339.128 140.164 340.365C143.543 339.466 146.932 338.557 150.31 337.658C153.351 336.844 151.63 335.523 151.018 333.736V333.757ZM154.132 337.626C157.87 340.386 162.262 337.87 166.992 336.654C165.957 338.853 169.399 338.959 172.165 339.572C173.062 338.219 173.706 335.935 175.48 334.91C179.133 332.795 179.45 333.112 184.475 333.789C184.444 329.75 185.204 329.264 179.249 327.192C178.932 327.921 177.919 328.545 177.56 329.275C174.435 327.795 174.118 327.213 173.126 324.94C170.307 326.188 169.8 327.678 169.357 329.624C169.135 330.607 172.45 330.49 172.619 331.22C172.767 331.844 171.436 333.535 170.159 333.007C165.873 331.241 163.592 331.77 158.292 332.097C156.825 332.193 154.745 336.728 154.122 337.637L154.132 337.626ZM161.28 326.558C166.675 325.458 167.72 325.638 169.198 322.435C170.518 319.58 161.618 323.312 161.005 323.566C162.885 322.329 164.775 321.081 166.654 319.844C163.708 317.878 160.055 319.422 158.44 321.42C156.677 323.598 159.274 324.412 161.28 326.568V326.558ZM190.493 316.303C194.21 315.151 190.525 314.04 188.635 312.952C187.241 312.148 181.783 312.518 179.809 312.444C178.679 312.402 174.994 314.939 175.607 315.457C177.317 316.905 177.444 318.164 180.083 319.348C183.62 316.44 184.306 316.557 190.493 316.313V316.303ZM193.988 314.294C195.571 314.728 197.166 315.172 198.749 315.605C199.773 313.512 202.709 310.975 198.686 309.558C193.798 307.845 191.095 310.266 188.667 312.116C192.003 312.233 193.829 311.968 193.988 314.294ZM200.523 304.843C205.559 304.388 199.414 307.718 198.211 308.606C203.849 309.114 206.773 309.928 211.419 308.036C215.251 306.482 216.011 303.669 217.679 301.185C211.313 300.434 204.947 299.684 198.58 298.933C197.736 298.838 193.259 297.992 193.059 298.542C192.478 300.128 190.789 301.703 193.819 302.623C189.606 303.151 189.089 305.139 192.161 306.714C196.215 308.786 196.986 306.883 200.523 304.832V304.843ZM189.279 361.255C191.528 359.796 197.715 357.396 195.381 355.261C197.577 355.335 203.764 356.233 205.559 355.609C209.919 354.087 207.502 351.613 205.549 350.08C207.016 349.932 208.494 349.774 209.962 349.626C208.98 348.928 206.055 346.084 204.577 346.285C200.111 346.877 200.196 347.046 197.113 345.207C194.357 343.568 191.612 341.919 188.857 340.28C186.914 339.117 184.159 339.847 181.498 340.026C181.836 341.348 182.174 342.669 182.512 343.991C177.824 344.192 173.136 344.393 168.449 344.583C166.369 344.667 162.42 349.203 161.808 350.397C160.319 353.315 160.731 355.218 164.437 356.994C168.153 358.77 172.482 356.159 176.409 354.943C176.905 355.694 177.402 356.434 177.887 357.185C174.826 357.597 171.764 357.999 168.702 358.411C169.061 359.077 169.663 361.635 170.602 361.974C172.112 362.513 176.135 360.61 177.486 361.466C178.806 362.301 180.358 364.183 182.29 363.549C184.623 362.788 186.956 362.027 189.279 361.265V361.255ZM196.68 339.307C202.74 340.1 204.831 340.65 209.402 343.05C210.057 341.528 212.96 337.944 212.2 336.495C211.725 335.576 208.441 334.328 207.248 333.63C206.33 333.102 206.91 331.315 206.9 330.575C203.521 330.86 202.149 330.829 199.784 332.193C197.123 333.736 198.137 333.969 199.605 335.977C195.392 336.294 196.226 337.32 196.68 339.307ZM216.096 334.804C217.996 333.704 220.604 332.922 218.672 331.252C225.123 332.203 224.056 325.86 224.373 323.756C221.121 324.686 212.738 325.987 210.764 327.668C209.687 328.587 210.141 331.252 209.951 332.383C209.835 333.059 215.008 334.413 216.106 334.804H216.096ZM205.116 326.843C210.606 325.374 212.833 325.744 211.598 322.234C215.04 323.703 215.061 324.221 218.703 323.154C223.212 321.832 227.72 320.511 232.228 319.189C235.047 318.364 237.876 317.54 240.706 316.726C243.694 315.869 242.701 312.761 242.923 310.953C239.576 311.165 236.229 311.366 232.883 311.577C231.267 311.672 230.19 314.527 228.839 315.172C221.28 318.787 219.675 318.703 212.168 315.087C210.342 314.21 197.197 315.827 197.989 318.417C198.739 320.838 204.873 320.119 207.217 319.834C210.627 319.422 210.088 321.039 211.461 322.181C209.244 322.741 207.016 323.301 204.788 323.851C202.603 324.401 204.44 325.691 205.105 326.833L205.116 326.843ZM197.145 327.932C205.126 330.247 202.339 321.621 198.654 321.367C190.588 320.785 189.976 324.517 189.733 328.45C191.581 327.467 193.428 326.484 195.276 325.5C195.899 326.315 196.522 327.129 197.145 327.943V327.932ZM299.671 326.04C295.933 325.035 292.196 324.031 288.469 323.027C286.178 322.413 285.977 319.062 285.397 317.698C285.143 317.096 275.821 317.339 274.554 317.318C269.096 317.212 270.014 317.572 269.011 320.711C266.044 320.077 263.088 319.443 260.121 318.798C256.827 318.09 256.025 319.961 254.009 321.483C251.739 323.196 252.224 323.344 249.131 322.181C246.111 321.05 243.102 319.908 240.083 318.777C239.376 321.029 238.668 323.28 237.961 325.532C237.401 327.308 245.615 328.45 240.157 330.099C235.765 327.086 235.49 324.179 234.192 320.299C228.459 323.037 224.31 325.448 225.524 329.972C226.041 331.907 236.567 338.155 238.541 337.119C245.298 333.567 249.12 332.214 257.778 330.501C260.417 329.983 263.838 330.501 266.572 330.607C271.492 330.797 271.524 330.628 274.923 328.471C279.104 332.034 287.593 343.304 272.548 342.68C273.403 346.063 273.034 346.507 278.239 348.082C281.163 348.97 284.13 343.822 284.679 342.923C287.825 343.727 294.117 346.306 297.475 345.894C299.745 345.619 312.467 344.699 312.234 343.579C311.939 342.13 312.034 335.491 309.69 335.174C306.523 334.74 303.355 334.296 300.188 333.863C296.472 333.345 297.137 333.133 296.873 330.85C300.505 331.379 304.137 331.918 307.779 332.446C308.117 329.476 308.465 326.494 308.803 323.523C308.824 323.312 303.725 322.065 303.155 322.191C301.962 322.456 300.315 325.31 299.671 326.018V326.04ZM245.14 320.384C251.675 321.24 254.03 319.052 259.245 316.694C252.214 316.588 245.087 315.256 245.14 320.384ZM212.295 294.493C218.999 299.451 224.215 292.928 227.646 289.609C230.718 290.497 227.868 295.888 225.84 296.036C219.094 296.523 218.376 296.819 214.079 299.863C217.394 300.191 220.699 300.519 224.014 300.847C223.349 302.084 222.092 301.745 219.907 301.83C216.972 301.946 217.605 302.908 217.078 304.515C216.856 305.192 221.565 305.678 222.62 305.868C224.785 306.27 225.397 305.329 226.96 304.431C233.231 307.623 220.013 306.45 218.788 306.809C216.507 307.496 215.927 308.892 217.426 309.759C218.482 310.372 215.124 312.603 214.364 313.322C221.29 314.284 225.735 312.412 231.088 309.917C233.22 308.924 236.24 308.966 238.9 308.702C240.167 308.575 241.181 305.012 241.593 304.23C240.093 304.23 238.584 304.24 237.084 304.251C239.566 303.458 239.354 302.57 239.154 301.196C238.922 299.62 241.139 298.553 242.701 297.305C246.259 294.44 232.988 296.269 236.873 294.662C241.001 292.96 244.528 291.998 246.555 289.344C248.93 286.226 251.295 283.107 253.671 279.988C251.38 280.739 249.089 281.489 246.798 282.24C246.935 280.792 250.799 279.343 252.562 278.318C255.972 276.341 256.088 276.214 255.877 273.402C246.016 276.108 236.155 278.815 226.284 281.511C223.212 282.346 222.42 282.219 221.892 284.101C221.311 286.194 222.188 287.293 218.482 287.494C215.452 287.653 212.253 287.41 209.93 288.583C206.763 290.18 207.66 290.106 210.057 292.019C203.31 292.22 203.606 292.706 200.481 296.206C206.013 297.707 207.196 296.406 212.295 294.493ZM254.431 355.557C256.479 356.846 258.517 358.147 260.565 359.436C261.399 357.46 261.842 354.51 265.728 353.558C267.121 353.22 270.553 354.045 271.651 353.495C272.442 353.093 272.221 350.471 272.347 349.805C265.992 349.848 259.646 349.89 253.291 349.932C253.671 351.804 254.051 353.675 254.431 355.546V355.557ZM360.325 358.855C360.251 360.779 360.177 362.714 360.103 364.638C360.061 365.685 358.794 369.564 359.882 370.421C363.429 373.201 376.373 367.979 379.91 367.048C382.866 366.266 374.694 359.532 371.59 361.836C370.587 362.576 365.826 365.484 365.804 362.872C365.783 359.51 366.016 359.711 360.314 358.855H360.325ZM166.168 431.358C155.632 429.782 161.153 436.168 165.894 435.47C163.867 437.278 169.811 438.779 172.693 438.388C173.643 436.348 171.268 436.136 168.681 435.47C166.474 434.899 166.443 432.489 166.158 431.358H166.168ZM643.019 551.677C640.485 551.297 637.518 551.286 634.837 551.138C636.653 553.929 638.458 556.73 640.263 559.521C642.924 558.274 647.601 556.678 649.417 555.43C653.144 552.861 653.798 551.497 654.96 548.199C651.37 549.563 647.59 551.751 643.019 551.677ZM584.096 542.839C582.966 542.733 581.583 542.913 580.433 542.945C580.876 544.203 582.154 547.332 585.69 547.099C590.684 546.772 585.194 543.706 584.086 542.839H584.096ZM536.058 438.335C540.524 437.447 556.688 432.626 559.824 434.582C562.548 436.284 568.45 438.705 569.885 440.851C571.216 442.828 569.389 447.004 569.22 449.118C568.935 452.618 568.133 452.618 573.908 453.812C577.117 454.468 580.823 458.105 583.051 459.553C588.066 462.799 595.087 468.465 588.678 472.165C584.962 474.311 584.93 476.077 583.843 479.101C582.639 482.494 581.573 482.917 585.595 485.349C591.518 488.932 594.907 493.383 596.459 498.183C597.219 500.54 596.47 503.363 596.48 505.763C596.48 508.417 593.324 508.543 589.375 509.802C592.458 509.96 595.551 510.129 598.634 510.288C600.82 510.404 600.872 512.857 601.369 513.935C603.111 517.699 602.794 519.253 597.832 522.118C598.824 522.52 604.747 524.528 604.346 525.025C603.174 526.484 599.574 528.884 602.393 529.793C608.622 531.802 610.374 535.29 613.658 538.927C614.861 540.259 619.845 538.261 621.777 538.874C623.139 539.308 624.912 542.923 625.409 543.843C626.19 545.292 625.905 548.262 627.541 549.404C628.523 550.091 633.295 550.757 634.288 550.292C634.721 553.633 634.742 555.007 638.711 557.777C634.868 558.39 630.635 559.606 626.665 559.183C621.872 558.686 616.983 558.316 612.275 557.587C608.326 556.963 608.78 556.9 608.263 554.574C607.988 553.326 606.552 552.925 604.927 552.089C602.171 550.673 598.412 554.69 594.664 551.37C593.566 550.398 597.219 549.552 595.752 548.632C593.862 547.438 591.962 546.232 590.072 545.038C585.5 542.141 585.901 541.665 579.398 542.691C575.629 543.294 567.848 537.532 565.24 536.147C547.419 526.717 529.608 517.286 511.786 507.856C506.338 504.97 501.06 507.053 493.88 507.951C491.03 508.311 485.054 509.812 482.182 509.326C478.276 508.67 474.359 508.004 470.453 507.349C460.243 505.626 450.034 503.913 439.835 502.19C434.113 501.228 438.558 497.591 436.51 496.555C435.359 495.973 431.727 497.379 431.326 496.227C430.861 494.884 429.753 494.314 428.201 493.267C425.793 491.639 429.827 489.197 428.338 487.156C426.986 485.296 425.519 481.067 422.837 479.788C420.113 478.487 415.795 475.284 411.91 475.347C405.596 475.443 408.458 478.572 410.559 480.2C409.249 480.707 407.961 481.236 406.631 481.722C403.717 482.78 401.574 483.594 398.618 483.879C395.915 484.143 388.461 485.158 386.624 484.09C379.572 480.01 373.797 483.16 365.467 483.9C360.747 484.323 356.492 484.577 351.752 484.841C345.544 485.19 349.841 488.076 345.702 488.954C341.12 489.926 335.852 491.671 331.038 492.072C326.688 492.432 321.124 491.575 316.753 491.353C310.725 491.047 310.144 490.878 305.815 488.372C302.933 486.702 301.898 486.268 298.119 485.571C291.721 484.386 285.323 483.213 278.925 482.029C275.863 481.469 270.743 481.12 268.103 480.031C266.329 479.301 265.675 477.145 263.732 476.606C263.162 476.447 259.118 476.013 260.417 476.954C263.817 479.418 265.728 480.433 270.479 481.902C278.682 484.429 285.83 487.801 293.304 490.994C289.641 491.047 285.977 491.1 282.303 491.153C279.938 491.184 277.816 489.186 276.233 488.266C274.543 487.294 270.447 489.123 268.114 487.939C267.142 487.442 265.654 487.093 266.023 486.332C266.308 485.75 267.09 485.201 266.076 484.894C260.343 483.181 253.882 481.722 248.529 479.64C246.882 478.995 244.179 476.785 241.962 476.51C239.851 476.246 237.834 478.033 235.849 477.155C226.453 473.022 214.037 469.649 209.729 463.169C206.625 458.506 203.532 453.834 200.428 449.171C199.277 447.438 194.347 443.325 196.648 442.395C190.694 442.268 187.03 440.629 180.97 440.375C182.607 436.94 186.481 439.065 191.232 438.441C194.716 437.986 194.917 437.722 197.419 439.17C199.182 440.185 200.428 440.745 197.789 441.929C198.939 441.929 200.586 441.729 201.674 441.517C197.356 437.278 192.837 437.584 184.993 437.806C179.186 437.965 177.518 433.239 173.58 431.516C172.154 430.892 170.17 431.569 168.575 431.252C167.425 431.019 166.073 430.121 165.112 429.687C163.835 429.116 162.885 428.345 161.586 427.636C156.423 424.792 150.976 421.79 146.024 419.073C145.845 419.179 145.654 419.284 145.475 419.39C147.365 420.532 156.561 424.803 150.078 425.31C144.989 425.712 143.131 420.669 139.161 419.876C135.509 419.147 128.54 419.654 125.299 420.838C119.25 423.059 119.07 422.319 112.926 420.183C111.458 422.35 110.001 424.528 108.534 426.695C107.731 427.879 103.276 429.137 101.502 429.92C100.668 428.017 99.8339 426.114 98.9999 424.211C97.6907 427.953 96.7828 430.713 97.4373 434.466C98.3136 439.487 98.7993 440.872 94.5762 445.196C88.4421 451.465 82.5298 457.798 76.5225 464.109C72.0882 461.181 71.9615 461.488 75.4245 458.221C77.441 456.318 79.3414 454.605 80.6822 452.523C82.3609 449.911 91.4405 440.27 85.581 437.944C85.4965 439.339 86.489 440.967 83.8918 441.263C82.1075 441.464 78.7713 442.331 77.1665 441.707C73.1229 440.153 65.8486 438.462 62.9347 436.242C60.158 434.127 59.8201 428.958 58.701 426.346C57.7825 424.2 62.1323 421.261 63.8215 419.401C67.4639 415.383 65.1623 416.271 59.44 418.164C57.9197 418.671 55.7554 419.95 54.1612 419.305C51.7118 418.322 49.2624 417.35 46.813 416.366C44.3847 415.394 43.5612 415.595 45.1132 414.146C46.7919 412.582 48.46 411.007 50.1387 409.442C51.205 408.438 61.4671 408.628 63.7476 408.49C61.5938 405.71 62.2906 404.737 57.1279 405.488C52.7676 406.122 52.3136 406.714 49.653 404.716C48.8717 404.124 43.2656 400.657 43.9202 400.086C45.5355 398.701 47.1508 397.326 48.7556 395.941C54.0556 391.417 59.345 386.881 64.645 382.357C67.4639 379.946 72.4366 380.496 77.3143 380.147C86.8796 379.47 96.4449 378.804 106.01 378.128C110.318 377.821 113.865 377.504 117.962 378.931C120.696 379.883 125.341 379.661 125.194 377.293C124.982 373.962 124.982 375.051 129.448 373.666C135.899 371.679 138.137 368.761 140.798 365.114C143.596 366.393 146.267 367.735 149.075 369.015C149.529 369.226 151.218 368.38 150.553 368C149.529 367.408 148.505 366.816 147.481 366.224C153.636 363.084 156.318 364.099 163.75 364.448C169.05 364.691 173.083 364.046 178.31 363.316C180.115 367.873 179.914 367.883 186.608 365.314C187.6 364.934 192.89 362.407 193.787 362.872C195.73 363.887 197.504 365.801 199.858 364.395C195.223 361.117 193.302 361.054 197.028 357.354C198.316 356.075 200.998 357.005 203.321 357.28C206.108 357.608 207.048 357.343 209.814 356.762C212.696 356.159 222.536 354.616 218.059 351.74C213.657 348.917 214.597 348.442 216.127 344.741C219.168 345.545 222.019 345.725 222.916 347.617C223.718 349.298 223.866 351.698 226.495 352.713C225.503 351.063 226.009 349.351 226.168 347.649C226.294 346.243 224.12 345.46 222.525 344.445C219.654 342.627 212.115 343.896 214.512 339.709C215.948 337.193 218.355 333.567 223.539 336.4C227.952 338.811 232.365 341.221 236.789 343.631C237.106 340.566 236.388 340.354 241.603 339.614C242.712 339.455 243.926 343.452 244.274 344.223C248.191 343.061 247.526 342.743 246.671 340.449C245.9 338.388 245.129 336.326 244.369 334.254C246.956 334.296 254.969 333.599 256.373 334.857C257.662 336.02 264.007 340.196 263.373 341.454C261.452 345.27 261.874 345.894 255.444 347.194C252.066 347.881 250.039 351.053 248.138 352.744C252.53 353.611 253.892 356.635 251.559 358.792C248.423 361.678 247.473 362.978 246.745 366.329C246.196 368.867 246.175 381.87 251.253 380.559C254.441 379.735 255.128 379.27 258.232 380.041C259.784 380.432 261.325 381.003 263.035 381.014C266.667 381.014 271.936 381.648 275.335 380.876C278.133 380.242 286.97 377.155 289.694 377.631C292.122 378.054 296.134 383.403 297.591 384.714C300.6 387.41 303.672 387.135 302.88 383.826C302.236 381.12 298.193 379.46 295.068 377.462C291.71 375.316 300.051 374.713 298.731 372.334C296.989 369.163 295.057 367.831 291.182 365.325C288.997 363.908 281.786 351.962 282.81 351.677C285.703 350.873 292.65 347.913 295.722 348.209C298.647 348.484 306.333 348.325 307.769 349.901C308.434 350.63 310.292 353.759 311.559 354.034C312.657 354.277 315.835 353.558 316.067 352.85C317.007 350.08 317.936 347.321 318.875 344.551C322.739 346.19 326.604 347.828 330.468 349.467C332.611 350.376 335.989 352.554 338.745 352.692L354.782 353.548C356.651 353.643 361.824 356.244 360.874 357.164C358.9 359.077 354.476 361.815 354.592 364.088C354.772 367.651 355.701 368.095 350.612 369.945C346.948 371.277 343.633 372.493 340.434 374.163C337.985 375.442 338.523 378.371 338.133 380.2C339.452 378.899 342.345 375.125 344.499 374.639C348.901 373.635 349.641 377.388 351.414 378.699C352.987 379.872 357.506 382.198 359.66 380.094C360.927 378.857 360.737 378.646 360.23 377.229C359.966 376.5 362.363 375.612 363.228 375.115C363.936 376.468 366.85 379.618 366.29 380.95C365.203 383.509 360.568 383.023 361.56 386.057C362.13 387.79 360.346 390.624 356.661 389.556C352.84 388.446 353.684 387.833 353.663 385.369C351.488 387.896 350.401 390.296 349.081 393.045C347.17 397.052 348.226 396.608 354.487 398.701C350.823 401.65 346.093 403.997 346.325 407.687C346.494 410.288 346.663 412.878 346.832 415.478C346.927 416.98 349.292 417.434 351.319 418.322C355.215 420.035 354.296 419.919 351.942 422.403C350.39 424.042 349.408 424.951 349.176 426.759C348.553 431.548 347.687 434.032 351.372 438.25C352.523 439.572 356.007 440.555 358.319 441.147C362.996 442.342 362.51 441.94 363.672 445.048C364.643 447.649 364.02 447.607 360.716 449.52C359.882 450.007 354.17 447.702 352.998 447.321C351.15 446.729 346.083 439.001 341.047 441.803C338.111 443.431 335.176 445.059 332.252 446.687C330.045 447.913 332.115 448.304 333.994 449.541C328.852 452.057 325.379 453.168 319.044 454.5C317.64 454.796 316.13 462.471 316.268 463.623C316.637 466.752 319.498 469.575 322.402 472.028C326.91 475.844 329.106 476.87 336.232 479.026C341.511 480.623 346.737 477.113 349.472 474.851C350.337 474.142 346.811 471.14 346.135 470.336C345.523 469.607 349.714 466.7 350.432 466.034C352.681 463.961 352.438 463.57 356.63 463.486C359.86 463.422 359.501 465.41 360.314 467.07C361.719 469.945 363.017 472.641 364.316 475.559C368.655 476.14 371.189 473.349 374.113 471.531C376.647 469.956 380.342 470.833 383.922 471.013C383.647 471.108 383.372 471.214 383.098 471.309C385.811 472.831 387.332 473.804 388.947 475.739C390.573 477.694 390.953 479.09 394.986 479.471C401.901 480.126 403.601 476.954 404.657 473.719C404.826 473.191 412.037 471.986 413.24 471.7C414.549 471.383 414.222 468.687 414.349 467.958C415.025 463.898 413.758 459.722 419.343 457.09C419.765 458.591 420.916 465.674 426.448 462.629C423.238 460.092 423.281 459.035 423.186 455.874C428.866 456.138 430.513 456.191 435.412 454.574C439.255 453.305 440.522 450.123 443.794 449.118C446.297 448.347 452.98 449.71 456.4 449.256C460.37 448.727 465.015 448.674 469.513 448.548C471.297 448.495 471.751 448.315 473.451 448.273C476.65 448.188 474.897 447.215 476.259 445.831C478.392 443.663 481.908 443.906 485.719 443.399C490.565 442.754 492.191 441.369 496.171 443.314C500.669 445.503 501.894 446.349 503.857 449.541C506.666 448.209 509.464 446.877 512.272 445.545C519.958 443.219 527.918 439.963 536.111 438.335H536.058ZM330.911 398.69C331.175 397.929 331.618 396.703 331.724 396.163C331.45 397.009 331.186 397.844 330.911 398.69ZM165.577 423.503C165.545 423.725 165.514 423.947 165.482 424.158C165.535 423.936 165.651 423.682 165.577 423.503ZM453.655 485.909C452.568 485.74 453.845 485.941 453.655 485.909V485.909ZM615.59 277.916C615.664 276.383 615.738 274.84 615.801 273.307C611.272 273.138 611.462 275.833 608.896 277.514C607.112 278.688 613.267 279.808 615.579 277.916H615.59ZM458.744 290.465C459.747 291.089 460.74 291.723 461.743 292.347C459.219 291.734 455.619 294.028 455.418 295.043C455.123 296.565 458.28 296.85 455.894 298.087C453.381 299.398 453.571 299.187 455.83 300.656C456.284 300.952 459.378 301.851 459.409 301.904C459.99 302.718 457.509 304.346 458.174 305.139C459.821 307.116 465.015 305.678 466.177 304.187C466.895 303.268 471.487 298.838 470.59 298.13C469.196 297.041 463.844 294.186 464.509 292.579C465.628 289.884 473.81 291.839 471.033 293.869C469.756 294.799 473.124 298.658 473.683 300.371C475.13 299.684 476.576 298.997 478.023 298.309C477.125 300.265 476.217 302.221 475.32 304.177C482.035 302.887 481.844 301.312 484.326 297.485C486.152 294.662 492.276 295 490.248 290.93C489.541 291.036 488.834 291.152 488.116 291.258C491.779 286.638 480.018 288.689 477.6 288.129C474.644 287.452 471.677 286.881 468.658 286.321C464.952 285.634 464.931 284.249 462.682 282.948C459.705 281.225 460.159 284.661 457.393 284.354C456.411 284.249 456.633 279.988 452.547 281.933C451.913 282.24 451.164 285.813 451.586 286.268C453.317 288.118 455.049 289.958 456.78 291.808C457.403 291.385 458.343 290.962 458.755 290.465H458.744ZM509.886 250.323C507.817 249.816 503.741 251.423 505.716 252.765C507.954 254.288 511.111 251.761 509.886 250.323ZM532.574 308.384C529.565 309.029 524.983 310.171 529.291 311.704C531.846 312.613 533.25 309.463 532.574 308.384ZM544.008 304.388C546.827 303.659 547.007 303.109 546.933 301.513C546.912 300.931 542.847 298.331 541.907 298.299C539.215 298.214 538.814 300.212 538.254 301.227C537.853 301.967 542.921 303.849 544.008 304.388ZM537.674 296.28C536.46 295.825 535.235 295.36 534.021 294.905C534.021 296.079 533.187 298.838 535.985 299.398C540.44 300.286 540.081 297.411 537.674 296.29V296.28ZM500.753 270.833C499.645 269.702 494.64 267.957 494.45 270.421C494.197 273.856 498.082 272.292 500.753 270.833ZM502.189 255.44C501.556 258.58 501.397 258.411 506.476 259.574C506.539 256.656 506.729 256.688 502.189 255.44ZM559.549 296.491C557.934 297.77 552.856 300.17 557.554 301.016C558.979 301.27 566.285 299.673 567.404 298.891C565.261 297.686 562.865 295.191 559.549 296.491ZM569.157 302.855C573.919 302.327 571.722 300.709 569.083 299.821C567.119 299.155 566.423 301.893 569.157 302.855ZM598.497 286.522C598.877 285.221 598.286 284.64 596.343 284.576C595.118 284.534 595.14 285.686 594.305 286.173C592.521 287.198 587.612 286.987 590.019 289.471C594.474 288.974 595.118 288.615 598.497 286.522Z" fill="url(#paint0_linear_585_1390)" />
                    </g>
                    <defs>
                        <filter id="filter0_di_585_1390" x="-4.00012" y="-0.020813" width="1200.01" height="637.017" filterUnits="userSpaceOnUse" color-interpolation-filters="sRGB">
                            <feFlood flood-opacity="0" result="BackgroundImageFix" />
                            <feColorMatrix in="SourceAlpha" type="matrix" values="0 0 0 0 0 0 0 0 0 0 0 0 0 0 0 0 0 0 127 0" result="hardAlpha" />
                            <feOffset dy="4" />
                            <feGaussianBlur stdDeviation="2" />
                            <feComposite in2="hardAlpha" operator="out" />
                            <feColorMatrix type="matrix" values="0 0 0 0 0 0 0 0 0 0 0 0 0 0 0 0 0 0 0.25 0" />
                            <feBlend mode="normal" in2="BackgroundImageFix" result="effect1_dropShadow_585_1390" />
                            <feBlend mode="normal" in="SourceGraphic" in2="effect1_dropShadow_585_1390" result="shape" />
                            <feColorMatrix in="SourceAlpha" type="matrix" values="0 0 0 0 0 0 0 0 0 0 0 0 0 0 0 0 0 0 127 0" result="hardAlpha" />
                            <feOffset dy="4" />
                            <feGaussianBlur stdDeviation="20" />
                            <feComposite in2="hardAlpha" operator="arithmetic" k2="-1" k3="1" />
                            <feColorMatrix type="matrix" values="0 0 0 0 1 0 0 0 0 0.205833 0 0 0 0 0.568009 0 0 0 0.28 0" />
                            <feBlend mode="normal" in2="shape" result="effect2_innerShadow_585_1390" />
                        </filter>
                        <linearGradient id="paint0_linear_585_1390" x1="-3.94565e-06" y1="314.506" x2="1192" y2="314.506" gradientUnits="userSpaceOnUse">
                            <stop stop-color="#558DBB" />
                            <stop offset="0.19" stop-color="#4E6FB9" />
                            <stop offset="0.56" stop-color="#4138B5" />
                            <stop offset="0.85" stop-color="#3915B3" />
                            <stop offset="1" stop-color="#3609B3" />
                        </linearGradient>
                    </defs>
                </svg>