<svg width="156" height="155" viewBox="0 0 156 155" fill="none" xmlns="http://www.w3.org/2000/svg">
<g id="Group">
<g id="Group_2">
<path id="Vector" d="M78 0C34.9219 0 0 34.698 0 77.5C0 120.302 34.9219 155 78 155C121.078 155 156 120.302 156 77.5C156 34.698 121.078 0 78 0ZM105.459 80.9279L67.4736 106.621C66.1953 107.485 64.5405 107.577 63.1735 106.858C61.8066 106.14 60.9515 104.729 60.9515 103.193V51.8071C60.9515 50.2707 61.8066 48.8601 63.1735 48.1415C64.5405 47.4232 66.1953 47.5144 67.4736 48.3792L105.459 74.0721C106.6 74.8444 107.284 76.1276 107.284 77.5C107.284 78.8724 106.601 80.1556 105.459 80.9279Z" fill="white"/>
</g>
</g>
</svg>
